<?xml version="1.0" encoding="UTF-8" standalone="no"?>
<!-- Created with Inkscape (http://www.inkscape.org/) -->

<svg
   version="1.1"
   id="svg2"
   width="933.33331"
   height="666.66669"
   viewBox="0 0 933.33331 666.66669"
   sodipodi:docname="9264820.ai"
   xmlns:inkscape="http://www.inkscape.org/namespaces/inkscape"
   xmlns:sodipodi="http://sodipodi.sourceforge.net/DTD/sodipodi-0.dtd"
   xmlns="http://www.w3.org/2000/svg"
   xmlns:svg="http://www.w3.org/2000/svg">
  <defs
     id="defs6">
    <clipPath
       clipPathUnits="userSpaceOnUse"
       id="clipPath16">
      <path
         d="M 0,500 H 700 V 0 H 0 Z"
         id="path14" />
    </clipPath>
    <clipPath
       clipPathUnits="userSpaceOnUse"
       id="clipPath28">
      <path
         d="M 0,500 H 700 V 0 H 0 Z"
         id="path26" />
    </clipPath>
  </defs>
  <sodipodi:namedview
     id="namedview4"
     pagecolor="#ffffff"
     bordercolor="#000000"
     borderopacity="0.25"
     inkscape:showpageshadow="2"
     inkscape:pageopacity="0.0"
     inkscape:pagecheckerboard="0"
     inkscape:deskcolor="#d1d1d1" />
  <g
     id="g8"
     inkscape:groupmode="layer"
     inkscape:label="9264820"
     transform="matrix(1.3333333,0,0,-1.3333333,0,666.66667)">
    <g
       id="g10">
      <g
         id="g12"
         clip-path="url(#clipPath16)">
        <g
           id="g18"
           transform="translate(521.7734,279.2227)">
          <path
             d="m 0,0 c 0,-91.632 -104.207,-165.915 -232.754,-165.915 -128.546,0 -232.753,74.283 -232.753,165.915 0,91.632 104.207,165.915 232.753,165.915 C -104.207,165.915 0,91.632 0,0"
             style="fill:#f5f5ff;fill-opacity:1;fill-rule:nonzero;stroke:none"
             id="path20" />
        </g>
      </g>
    </g>
    <g
       id="g22">
      <g
         id="g24"
         clip-path="url(#clipPath28)">
        <g
           id="g30"
           transform="translate(646.5343,60.2912)">
          <path
             d="m 0,0 c 0,-8.141 -47.57,-14.741 -106.251,-14.741 -58.681,0 -106.251,6.6 -106.251,14.741 0,8.141 47.57,14.741 106.251,14.741 C -47.57,14.741 0,8.141 0,0"
             style="fill:#dfdfeb;fill-opacity:1;fill-rule:nonzero;stroke:none"
             id="path32" />
        </g>
        <g
           id="g34"
           transform="translate(509.5283,53.178)">
          <path
             d="m 0,0 c 0,-9.028 -85.938,-16.346 -191.948,-16.346 -106.01,0 -191.948,7.318 -191.948,16.346 0,9.028 85.938,16.346 191.948,16.346 C -85.938,16.346 0,9.028 0,0"
             style="fill:#dfdfeb;fill-opacity:1;fill-rule:nonzero;stroke:none"
             id="path36" />
        </g>
        <g
           id="g38"
           transform="translate(354.2776,342.9004)">
          <path
             d="m 0,0 c 0,0 -3.552,-20.617 -29.434,-47.154 0,0 -2.86,3.54 2.089,18.206 C -22.397,-14.281 -1.476,4.994 0,0"
             style="fill:#7e9e6e;fill-opacity:1;fill-rule:nonzero;stroke:none"
             id="path40" />
        </g>
        <g
           id="g42"
           transform="translate(354.2776,342.9004)">
          <path
             d="m 0,0 c 0,0 -23.29,-16.659 -29.434,-47.154 0,0 -1.191,-10.459 2.393,-19.52"
             style="fill:none;stroke:#000000;stroke-width:1;stroke-linecap:round;stroke-linejoin:miter;stroke-miterlimit:10;stroke-dasharray:none;stroke-opacity:1"
             id="path44" />
        </g>
        <g
           id="g46"
           transform="translate(291.678,326.2459)">
          <path
             d="m 0,0 c 0,0 6.534,4.951 -4.707,17.316 -10.678,11.747 -21.983,22.28 -44.079,26.14 0,0 6.669,-29.93 21.067,-37.064 C -13.321,-0.742 0,0 0,0"
             style="fill:#7e9e6e;fill-opacity:1;fill-rule:nonzero;stroke:none"
             id="path48" />
        </g>
        <g
           id="g50"
           transform="translate(238.0462,304.2391)">
          <path
             d="m 0,0 c 0,0 23.053,-5.029 62.152,8.019 0,0 -2.424,4.042 -19.895,5.401 C 24.786,14.78 -4.551,3.358 0,0"
             style="fill:#7e9e6e;fill-opacity:1;fill-rule:nonzero;stroke:none"
             id="path52" />
        </g>
        <g
           id="g54"
           transform="translate(238.0462,304.2391)">
          <path
             d="m 0,0 c 0,0 27.659,14.642 62.152,8.019 0,0 3.548,-0.888 7.161,-5.714"
             style="fill:none;stroke:#000000;stroke-width:1;stroke-linecap:round;stroke-linejoin:miter;stroke-miterlimit:10;stroke-dasharray:none;stroke-opacity:1"
             id="path56" />
        </g>
        <g
           id="g58"
           transform="translate(257.1537,283.3525)">
          <path
             d="m 0,0 c 0,0 24.67,-16.239 63.768,-3.192 0,0 -7.603,13.756 -25.074,15.115 C 21.223,13.283 -4.55,3.359 0,0"
             style="fill:#7e9e6e;fill-opacity:1;fill-rule:nonzero;stroke:none"
             id="path60" />
        </g>
        <g
           id="g62"
           transform="translate(257.1537,283.3525)">
          <path
             d="m 0,0 c 0,0 26.59,12.407 63.768,-3.192 0,0 4.373,-1.946 7.985,-6.772"
             style="fill:none;stroke:#000000;stroke-width:1;stroke-linecap:round;stroke-linejoin:miter;stroke-miterlimit:10;stroke-dasharray:none;stroke-opacity:1"
             id="path64" />
        </g>
        <g
           id="g66"
           transform="translate(340.6584,362.4224)">
          <path
             d="m 0,0 c 0,0 7.281,0.872 -10.486,-15.563 -16.777,-15.52 -14.644,-15.641 -14.644,-15.641 0,0 6.365,23.223 25.13,31.204"
             style="fill:#000000;fill-opacity:1;fill-rule:nonzero;stroke:none"
             id="path68" />
        </g>
        <g
           id="g70"
           transform="translate(303.3235,323.3571)">
          <path
             d="M 0,0 C 0,0 5.437,-2.097 15.246,6.904 25.054,15.906 28.71,35.965 37.335,39.065 37.335,39.065 15.697,32.075 0,0"
             style="fill:#7e9e6e;fill-opacity:1;fill-rule:nonzero;stroke:none"
             id="path72" />
        </g>
        <g
           id="g74"
           transform="translate(338.9848,254.4345)">
          <path
             d="m 0,0 c -11.063,22.284 -26.422,47.6 -47.307,71.811 0,0 -5.13,6.72 -22.956,24.139 -17.825,17.418 -25.83,19.317 -25.83,19.317"
             style="fill:none;stroke:#000000;stroke-width:1;stroke-linecap:round;stroke-linejoin:miter;stroke-miterlimit:10;stroke-dasharray:none;stroke-opacity:1"
             id="path76" />
        </g>
        <g
           id="g78"
           transform="translate(338.1028,361.3541)">
          <path
             d="m 0,0 c 0,0 -20.59,-8.985 -34.779,-37.997 -3.438,-7.028 0.675,-12.591 4.035,-16.813"
             style="fill:none;stroke:#000000;stroke-width:1;stroke-linecap:round;stroke-linejoin:miter;stroke-miterlimit:10;stroke-dasharray:none;stroke-opacity:1"
             id="path80" />
        </g>
        <g
           id="g82"
           transform="translate(525.8595,120.8467)">
          <path
             d="m 0,0 c 0,0 -17.209,-12.699 -56.862,-3.379 0,0 0.105,6.36 14.336,12.477 C -28.295,15.216 2.249,5.89 0,0"
             style="fill:#7e9e6e;fill-opacity:1;fill-rule:nonzero;stroke:none"
             id="path84" />
        </g>
        <g
           id="g86"
           transform="translate(524.6294,122.005)">
          <path
             d="m 0,0 c 0,0 -27.158,9.076 -55.454,-3.849 0,0 -9.166,-5.176 -14.398,-13.396"
             style="fill:none;stroke:#000000;stroke-width:1;stroke-linecap:round;stroke-linejoin:miter;stroke-miterlimit:10;stroke-dasharray:none;stroke-opacity:1"
             id="path88" />
        </g>
        <g
           id="g90"
           transform="translate(468.4801,148.7846)">
          <path
             d="m 0,0 c 0,0 7.844,-2.383 11.256,13.975 3.243,15.54 5.134,30.875 -4.712,51.03 0,0 -20.316,-22.967 -17.64,-38.811 C -8.42,10.349 0,0 0,0"
             style="fill:#7e9e6e;fill-opacity:1;fill-rule:nonzero;stroke:none"
             id="path92" />
        </g>
        <g
           id="g94"
           transform="translate(526.8071,142.653)">
          <path
             d="m 0,0 c 0,0 6.052,-4.139 -18.142,-4.802 -22.845,-0.626 -21.32,-2.122 -21.32,-2.122 0,0 20.086,13.28 39.462,6.924"
             style="fill:#000000;fill-opacity:1;fill-rule:nonzero;stroke:none"
             id="path96" />
        </g>
        <g
           id="g98"
           transform="translate(472.9837,137.8533)">
          <path
             d="M 0,0 C 0,0 2.71,-5.16 16.019,-4.848 29.327,-4.536 45.292,8.148 53.823,4.8 53.823,4.8 32.939,13.794 0,0"
             style="fill:#7e9e6e;fill-opacity:1;fill-rule:nonzero;stroke:none"
             id="path100" />
        </g>
        <g
           id="g102"
           transform="translate(438.1108,68.3327)">
          <path
             d="m 0,0 c 11.548,22.037 23.027,49.332 30.369,80.452 0,0 2.429,8.098 6.067,32.754 3.639,24.656 0.478,32.251 0.478,32.251"
             style="fill:none;stroke:#000000;stroke-width:1;stroke-linecap:round;stroke-linejoin:miter;stroke-miterlimit:10;stroke-dasharray:none;stroke-opacity:1"
             id="path104" />
        </g>
        <g
           id="g106"
           transform="translate(524.1806,143.5326)">
          <path
             d="m 0,0 c 0,0 -21.41,6.803 -51.197,-5.679 -7.216,-3.024 -9.264,-7.799 -12.313,-16.652"
             style="fill:none;stroke:#000000;stroke-width:1;stroke-linecap:round;stroke-linejoin:miter;stroke-miterlimit:10;stroke-dasharray:none;stroke-opacity:1"
             id="path108" />
        </g>
        <g
           id="g110"
           transform="translate(251.6119,267.6686)">
          <path
             d="m 0,0 c -5.57,0 -10.962,1.954 -15.239,5.523 l -11.865,9.901 c -4.27,3.563 -9.342,5.472 -14.538,5.472 h -58.888 c -5.344,0 -9.676,-4.332 -9.676,-9.676 V 0 -201.968 c 0,-9.221 7.476,-16.697 16.697,-16.697 h 293.551 c 7.172,0 12.986,5.815 12.986,12.987 V -12.987 C 213.028,-5.814 207.214,0 200.042,0 Z"
             style="fill:#333969;fill-opacity:1;fill-rule:nonzero;stroke:none"
             id="path112" />
        </g>
        <g
           id="g114"
           transform="translate(464.6389,60.9027)">
          <path
             d="M 0,0 C 0,0 -19.978,37.474 -21.976,41.778 L -76.575,153.01 c -1.372,2.955 -4.335,4.846 -7.594,4.846 h -202.894 c -7.376,0 -18.044,3.867 -23.707,8.592 l -8.188,6.832 c -4.269,3.563 -9.342,5.472 -14.538,5.472 h -56.041 c -5.965,0 -10.017,-6.06 -7.737,-11.572 L -329.509,3.281 c 3.799,-9.188 12.76,-15.18 22.702,-15.18 H -3.664 c 1.976,0 3.801,1.693 3.8,3.669 z"
             style="fill:#7584f1;fill-opacity:1;fill-rule:nonzero;stroke:none"
             id="path116" />
        </g>
        <g
           id="g118"
           transform="translate(382.1116,208.1822)">
          <path
             d="M 0,0 80.118,-155.741"
             style="fill:none;stroke:#000000;stroke-width:1;stroke-linecap:butt;stroke-linejoin:round;stroke-miterlimit:10;stroke-dasharray:none;stroke-opacity:1"
             id="path120" />
        </g>
        <g
           id="g122"
           transform="translate(349.0994,181.344)">
          <path
             d="m 0,0 h -69.013 c -1.882,0 -3.634,0.947 -4.644,2.51 v 0 c -2.332,3.609 0.3,8.331 4.644,8.331 H 0 c 1.882,0 3.633,-0.947 4.644,-2.51 C 6.975,4.722 4.343,0 0,0 Z"
             style="fill:none;stroke:#000000;stroke-width:1;stroke-linecap:butt;stroke-linejoin:round;stroke-miterlimit:10;stroke-dasharray:none;stroke-opacity:1"
             id="path124" />
        </g>
        <g
           id="g126"
           transform="translate(220.0018,127.8159)">
          <path
             d="M 0,0 53.734,-32.013"
             style="fill:none;stroke:#000000;stroke-width:1;stroke-linecap:round;stroke-linejoin:round;stroke-miterlimit:10;stroke-dasharray:none;stroke-opacity:1"
             id="path128" />
        </g>
        <g
           id="g130"
           transform="translate(263.9349,129.3587)">
          <path
             d="M 0,0 -33.764,-33.749"
             style="fill:none;stroke:#000000;stroke-width:1;stroke-linecap:round;stroke-linejoin:round;stroke-miterlimit:10;stroke-dasharray:none;stroke-opacity:1"
             id="path132" />
        </g>
        <g
           id="g134"
           transform="translate(263.6538,137.9408)">
          <path
             d="M 0,0 C 19.744,-9.757 27.936,-29.251 18.298,-43.541 8.659,-57.831 -15.16,-61.505 -34.904,-51.747 -54.648,-41.99 -62.84,-22.496 -53.201,-8.206 -43.563,6.083 -19.744,9.757 0,0 Z"
             style="fill:none;stroke:#000000;stroke-width:1;stroke-linecap:round;stroke-linejoin:round;stroke-miterlimit:10;stroke-dasharray:none;stroke-opacity:1"
             id="path136" />
        </g>
        <g
           id="g138"
           transform="translate(524.3769,267.5637)">
          <path
             d="m 0,0 c 1.289,5.57 -4.638,12.514 -10.249,11.419 -4.568,-0.891 -6.842,-1.986 -7.576,-2.228 -1.434,-0.473 -12.143,0.223 -13.369,-1.56 -0.888,-1.291 4.699,-2.784 8.272,-3.139 0.736,-0.073 0.953,-1.035 0.324,-1.424 -3.511,-2.177 -10.5,-6.602 -11.095,-7.695 -0.797,-1.466 -4.428,-7.162 -3.405,-7.795 1.023,-0.632 4.117,2.213 6.127,4.234 2.011,2.02 7.886,3.737 7.886,3.737 0,0 -10.216,-10.253 -11.562,-13.095 -2.005,-4.234 3.812,-2.377 3.812,-2.377 -0.91,-2.392 3.861,-1.868 4.989,-0.966 2.228,1.783 9.115,10.094 9.135,9.247 0.021,-0.847 -7.115,-9.901 -6.392,-12.017 0.723,-2.115 3.608,0.539 5.278,2.77 1.67,2.232 6.573,8.467 6.573,8.467 0,0 5.57,4.067 10.22,11.089 C -0.994,-1.276 -0.015,-0.066 0,0"
             style="fill:#db9c7f;fill-opacity:1;fill-rule:nonzero;stroke:none"
             id="path140" />
        </g>
        <g
           id="g142"
           transform="translate(493.7969,247.8707)">
          <path
             d="M 0,0 9.747,11.616"
             style="fill:none;stroke:#000000;stroke-width:1;stroke-linecap:round;stroke-linejoin:miter;stroke-miterlimit:10;stroke-dasharray:none;stroke-opacity:1"
             id="path144" />
        </g>
        <g
           id="g146"
           transform="translate(451.1037,300.5129)">
          <path
             d="m 0,0 35.062,21.875 c 0.217,0.142 0.424,0.299 0.619,0.47 l 11.563,11.897 c 2.516,2.205 6.399,1.692 8.255,-1.093 l 5.667,-8.5 c 1.2,-1.8 1.242,-4.134 0.107,-5.976 L 53.135,5.47 C 52.536,4.498 51.659,3.739 50.61,3.289 44.063,0.485 19.049,-10.079 4.129,-14.294 c -3.706,-1.047 -7.307,1.969 -6.982,5.806 l 0.366,4.321 C -2.344,-2.469 -1.426,-0.932 0,0"
             style="fill:#9ec68a;fill-opacity:1;fill-rule:nonzero;stroke:none"
             id="path148" />
        </g>
        <g
           id="g150"
           transform="translate(531.8536,81.9396)">
          <path
             d="m 0,0 -1.854,-12.596 c 0,0 -34.743,-13.346 -31.52,-13.539 3.223,-0.193 53.151,2.712 53.151,2.712 l -2.938,22.867 z"
             style="fill:#000000;fill-opacity:1;fill-rule:nonzero;stroke:none"
             id="path152" />
        </g>
        <g
           id="g154"
           transform="translate(541.5322,285.774)">
          <path
             d="m 0,0 c 0,0 2.769,-26.648 4.845,-28.032 2.077,-1.384 4.845,-2.076 4.845,-2.076 L 5.191,0.346 Z"
             style="fill:none;stroke:#424242;stroke-width:1;stroke-linecap:butt;stroke-linejoin:miter;stroke-miterlimit:10;stroke-dasharray:none;stroke-opacity:1"
             id="path156" />
        </g>
        <g
           id="g158"
           transform="translate(596.3956,304.0904)">
          <path
             d="m 0,0 c 0,0 14.082,-28.676 9.994,-44.653 l -78.062,10.737 1.629,29.791 z"
             style="fill:#000000;fill-opacity:1;fill-rule:nonzero;stroke:none"
             id="path160" />
        </g>
        <g
           id="g162"
           transform="translate(598.5398,298.2814)">
          <path
             d="M 0,0 C 0,0 -11.034,-20.433 -32.148,-22.067"
             style="fill:none;stroke:#424242;stroke-width:1;stroke-linecap:round;stroke-linejoin:miter;stroke-miterlimit:10;stroke-dasharray:none;stroke-opacity:1"
             id="path164" />
        </g>
        <g
           id="g166"
           transform="translate(580.8767,280.573)">
          <path
             d="M 0,0 C 0,0 4.277,-13.245 16.694,-13.518"
             style="fill:none;stroke:#424242;stroke-width:1;stroke-linecap:round;stroke-linejoin:miter;stroke-miterlimit:10;stroke-dasharray:none;stroke-opacity:1"
             id="path168" />
        </g>
        <g
           id="g170"
           transform="translate(528.3276,270.1747)">
          <path
             d="m 0,0 c 0,0 -20.914,-74.457 -21.456,-98.427 l 15.281,-92.343 c 0,0 14.577,-7.248 29.759,-1.391 0.623,0.24 -7.696,47.894 -8.282,96.96 l 43.644,91.319 z"
             style="fill:#000000;fill-opacity:1;fill-rule:nonzero;stroke:none"
             id="path172" />
        </g>
        <g
           id="g174"
           transform="translate(606.7338,262.5605)">
          <path
             d="m 0,0 -3.074,-89.85 34.377,-93.935 c 0,0 -14.385,-12.153 -32.556,-1.092 l -37.322,89.443 3.828,65.081 -16.265,9.849 -2.423,28.187 z"
             style="fill:#000000;fill-opacity:1;fill-rule:nonzero;stroke:none"
             id="path176" />
        </g>
        <g
           id="g178"
           transform="translate(546.3238,278.9827)">
          <path
             d="M 0,0 16.572,-12.486 40.329,14.037 -17.379,5.793 -3.258,-12.931 Z"
             style="fill:#ffffff;fill-opacity:1;fill-rule:nonzero;stroke:none"
             id="path180" />
        </g>
        <g
           id="g182"
           transform="translate(613.7458,83.4591)">
          <path
             d="m 0,0 -2.999,-10.868 c 0,0 -21.918,-23.772 -18.688,-23.772 3.23,0 39.221,14.716 39.221,14.716 L 12.92,2.717 Z"
             style="fill:#000000;fill-opacity:1;fill-rule:nonzero;stroke:none"
             id="path184" />
        </g>
        <g
           id="g186"
           transform="translate(593.5905,291.3797)">
          <path
             d="m 0,0 c 0,0 9.48,-23.302 2.65,-121.054 0,0 23.943,-52.695 36.358,-94.374"
             style="fill:none;stroke:#424242;stroke-width:1;stroke-linecap:round;stroke-linejoin:miter;stroke-miterlimit:10;stroke-dasharray:none;stroke-opacity:1"
             id="path188" />
        </g>
        <g
           id="g190"
           transform="translate(558.7497,239.7279)">
          <path
             d="m 0,0 -23.895,-66.559 10.247,-97.217"
             style="fill:none;stroke:#424242;stroke-width:1;stroke-linecap:round;stroke-linejoin:miter;stroke-miterlimit:10;stroke-dasharray:none;stroke-opacity:1"
             id="path192" />
        </g>
        <g
           id="g194"
           transform="translate(454.536,287.372)">
          <path
             d="m 0,0 c 0,0 0.464,-2.331 -4.697,-4.111 -5.161,-1.78 -8.198,-1.215 -8.198,-1.215 0,0 -11.578,13.656 -12.092,14.138 -0.514,0.483 0.361,5.734 3.786,7.837 2.08,1.277 10.146,-0.805 16.163,-2.637 C -0.844,12.734 1.744,8.534 1.039,4.207 0.762,2.506 0.416,0.929 0,0"
             style="fill:#db9c7f;fill-opacity:1;fill-rule:nonzero;stroke:none"
             id="path196" />
        </g>
        <g
           id="g198"
           transform="translate(445.0397,290.9961)">
          <path
             d="m 0,0 c 0,0 -9.466,1.374 -13.466,4.672 0,0 -5.978,1.205 -7.248,0.451 -1.27,-0.755 -2.311,-1.825 -5.06,-2.289 -2.749,-0.464 -1.92,1.367 0.968,3.963 0.825,0.742 3.033,3.409 4.947,3.77 2.578,0.485 8.155,2.458 8.155,2.458 L -0.515,-0.353"
             style="fill:#db9c7f;fill-opacity:1;fill-rule:nonzero;stroke:none"
             id="path200" />
        </g>
        <g
           id="g202"
           transform="translate(441.641,282.0462)">
          <path
             d="m 0,0 c 0,0 -3.838,-2.408 -5.188,-2.342 -1.35,0.065 -2.625,0.87 -2.955,3.088 0,0 -7.148,-1.312 -4.883,4.097 0,0 -4.318,0.7 -4.433,3.519 0,0 -3.835,1.91 -2.997,4.974 0.839,3.064 12.872,2.786 12.872,2.786 L 5.183,9.64 Z"
             style="fill:#db9c7f;fill-opacity:1;fill-rule:nonzero;stroke:none"
             id="path204" />
        </g>
        <g
           id="g206"
           transform="translate(438.9295,281.5341)">
          <path
             d="M 0,0 C 0,0 3.646,3.233 3.443,4.53 3.241,5.827 2.556,6.54 1.728,6.291 0.617,5.958 -3.609,2.735 -5.432,1.258"
             style="fill:none;stroke:#1a1c30;stroke-width:0.78;stroke-linecap:round;stroke-linejoin:round;stroke-miterlimit:10;stroke-dasharray:none;stroke-opacity:1"
             id="path208" />
        </g>
        <g
           id="g210"
           transform="translate(428.6149,286.8894)">
          <path
             d="M 0,0 C 0,0 9.712,1.516 9.802,2.955 9.891,4.393 9.213,6.292 7.184,5.888 4.773,5.407 -2.14,3.752 -4.433,3.797"
             style="fill:none;stroke:#1a1c30;stroke-width:0.78;stroke-linecap:round;stroke-linejoin:round;stroke-miterlimit:10;stroke-dasharray:none;stroke-opacity:1"
             id="path212" />
        </g>
        <g
           id="g214"
           transform="translate(440.6572,287.8253)">
          <path
             d="M 0,0 C 0,0 1.785,1.108 1.079,2.346 0.373,3.584 -0.591,4.019 -2.657,3.482"
             style="fill:none;stroke:#1a1c30;stroke-width:0.78;stroke-linecap:round;stroke-linejoin:round;stroke-miterlimit:10;stroke-dasharray:none;stroke-opacity:1"
             id="path216" />
        </g>
        <g
           id="g218"
           transform="translate(423.9869,294.7422)">
          <path
             d="M 0,0 C 0,0 0.531,0.691 1.282,1.397"
             style="fill:none;stroke:#1a1c30;stroke-width:0.78;stroke-linecap:round;stroke-linejoin:round;stroke-miterlimit:10;stroke-dasharray:none;stroke-opacity:1"
             id="path220" />
        </g>
        <g
           id="g222"
           transform="translate(445.0485,276.7342)">
          <path
             d="m 0,0 -0.167,-0.094 c -1.307,-0.735 -2.964,-0.271 -3.7,1.037 l -25.248,44.893 4.904,2.758 L 1.036,3.7 C 1.772,2.392 1.308,0.736 0,0"
             style="fill:#333969;fill-opacity:1;fill-rule:nonzero;stroke:none"
             id="path224" />
        </g>
        <g
           id="g226"
           transform="translate(428.4136,315.3546)">
          <path
             d="M 0,0 2.119,-3.768 C 2.694,-4.79 2.434,-6.026 1.538,-6.53 L -3.04,-9.105 c -0.896,-0.503 -2.088,-0.083 -2.662,0.939 l -2.211,3.931"
             style="fill:#333969;fill-opacity:1;fill-rule:nonzero;stroke:none"
             id="path228" />
        </g>
        <g
           id="g230"
           transform="translate(418.6176,352.2255)">
          <path
             d="m 0,0 c -8.758,16.247 -19.736,27.431 -26.713,27.954 l 0.231,1.543 -3.647,-2.377 c -6.266,-4.267 -2.935,-23.327 7.438,-42.573 10.374,-19.245 23.863,-31.387 30.129,-27.12 l 3.429,2.285 -0.988,1.321 C 12.291,-31.513 8.529,-15.823 0,0"
             style="fill:#333969;fill-opacity:1;fill-rule:nonzero;stroke:none"
             id="path232" />
        </g>
        <g
           id="g234"
           transform="translate(422.2639,354.6022)">
          <path
             d="m 0,0 c 10.374,-19.245 13.704,-38.306 7.438,-42.573 -6.266,-4.267 -19.755,7.875 -30.129,27.12 C -33.064,3.793 -36.395,22.853 -30.129,27.12 -23.863,31.387 -10.374,19.245 0,0"
             style="fill:#7584f1;fill-opacity:1;fill-rule:nonzero;stroke:none"
             id="path236" />
        </g>
        <g
           id="g238"
           transform="translate(418.8017,352.2444)">
          <path
             d="M 0,0 C 8.443,-15.662 11.757,-30.763 7.404,-33.728 3.05,-36.693 -7.324,-26.399 -15.766,-10.737 -24.209,4.925 -27.523,20.026 -23.17,22.991 -18.816,25.956 -8.443,15.663 0,0"
             style="fill:#d3ddf7;fill-opacity:1;fill-rule:nonzero;stroke:none"
             id="path240" />
        </g>
        <g
           id="g242"
           transform="translate(445.0397,290.9961)">
          <path
             d="m 0,0 c 0,0 -9.466,1.374 -13.466,4.672 0,0 -5.978,1.205 -7.248,0.451 -1.27,-0.755 -2.311,-1.825 -5.06,-2.289 -2.749,-0.464 -1.92,1.367 0.968,3.963 0.825,0.742 3.033,3.409 4.947,3.77 2.578,0.485 8.155,2.458 8.155,2.458 L -0.515,-0.353"
             style="fill:#db9c7f;fill-opacity:1;fill-rule:nonzero;stroke:none"
             id="path244" />
        </g>
        <g
           id="g246"
           transform="translate(445.0397,290.9961)">
          <path
             d="m 0,0 c 0,0 -9.466,1.374 -13.466,4.672 0,0 -5.978,1.205 -7.248,0.451 -1.27,-0.755 -2.311,-1.825 -5.06,-2.289"
             style="fill:none;stroke:#1a1c30;stroke-width:0.78;stroke-linecap:round;stroke-linejoin:round;stroke-miterlimit:10;stroke-dasharray:none;stroke-opacity:1"
             id="path248" />
        </g>
        <g
           id="g250"
           transform="translate(418.8017,352.2444)">
          <path
             d="m 0,0 c -8.443,15.663 -18.816,25.956 -23.17,22.991 -0.344,-0.234 -0.634,-0.552 -0.884,-0.932 5.033,-0.306 13.837,-9.863 21.181,-23.487 7.776,-14.426 11.196,-28.367 8.287,-32.796 0.753,-0.046 1.423,0.11 1.99,0.496 C 11.757,-30.763 8.443,-15.662 0,0"
             style="fill:#333969;fill-opacity:1;fill-rule:nonzero;stroke:none"
             id="path252" />
        </g>
        <g
           id="g254"
           transform="translate(412.9237,358.3828)">
          <path
             d="m 0,0 c 4.491,-8.332 6.254,-16.365 3.938,-17.942 -2.316,-1.577 -7.834,3.898 -12.325,12.23 -4.491,8.332 -6.254,16.365 -3.938,17.942 C -10.009,13.807 -4.491,8.332 0,0"
             style="fill:#ffffff;fill-opacity:1;fill-rule:nonzero;stroke:none"
             id="path256" />
        </g>
        <g
           id="g258"
           transform="translate(580.8595,331.5661)">
          <path
             d="m 0,0 -6.965,24.852 c -2.557,9.124 -7.038,17.565 -12.96,24.962 -10.489,13.102 -38.04,11.91 -38.04,11.91 L -79.163,46.471 C -79.228,46.435 -79.292,46.4 -79.357,46.364 -91.838,39.476 -94.131,28.853 -93.803,12.477 l 0.772,-22.111 14.35,13.705 3.622,-4.967 c -0.016,0.143 -0.029,0.276 -0.042,0.405 l 1.716,-2.699 -1.674,2.294 c 0.508,-4.562 2.887,-16.18 13.947,-21.608 l 6.3,-9.915 -1.671,-13.703 c 59.136,-21.504 73.862,20.721 73.862,20.721 z"
             style="fill:#9ec68a;fill-opacity:1;fill-rule:nonzero;stroke:none"
             id="path260" />
        </g>
        <g
           id="g262"
           transform="translate(499.1436,337.9162)">
          <path
             d="m 0,0 7.743,-9.47 c 0,0 -1.059,-14.594 13.647,-19.273"
             style="fill:none;stroke:#000000;stroke-width:1;stroke-linecap:round;stroke-linejoin:miter;stroke-miterlimit:10;stroke-dasharray:none;stroke-opacity:1"
             id="path264" />
        </g>
        <g
           id="g266"
           transform="translate(557.91,318.6431)">
          <path
             d="m 0,0 -45.008,-39.215 c 0,0 8.913,-12.477 12.923,-12.923 l 53.92,34.313"
             style="fill:#9ec68a;fill-opacity:1;fill-rule:nonzero;stroke:none"
             id="path268" />
        </g>
        <g
           id="g270"
           transform="translate(526.2708,291.4601)">
          <path
             d="M 0,0 C 0,0 24.509,27.629 32.976,31.639"
             style="fill:none;stroke:#000000;stroke-width:1;stroke-linecap:round;stroke-linejoin:miter;stroke-miterlimit:10;stroke-dasharray:none;stroke-opacity:1"
             id="path272" />
        </g>
        <g
           id="g274"
           transform="translate(546.2681,348.444)">
          <path
             d="M 0,0 C 0,0 1.17,-6.183 9.024,-27.907"
             style="fill:none;stroke:#000000;stroke-width:1;stroke-linecap:round;stroke-linejoin:miter;stroke-miterlimit:10;stroke-dasharray:none;stroke-opacity:1"
             id="path276" />
        </g>
        <g
           id="g278"
           transform="translate(532.0639,270.0703)">
          <path
             d="m 0,0 c 0,0 50.355,32.085 50.801,41.443 0.445,9.358 -12.7,52.806 -12.7,52.806"
             style="fill:none;stroke:#000000;stroke-width:1;stroke-linecap:round;stroke-linejoin:miter;stroke-miterlimit:10;stroke-dasharray:none;stroke-opacity:1"
             id="path280" />
        </g>
        <g
           id="g282"
           transform="translate(537.5785,315.5237)">
          <path
             d="M 0,0 C 0,0 12.12,-1.141 15.875,9.859"
             style="fill:none;stroke:#000000;stroke-width:1;stroke-linecap:round;stroke-linejoin:miter;stroke-miterlimit:10;stroke-dasharray:none;stroke-opacity:1"
             id="path284" />
        </g>
        <g
           id="g286"
           transform="translate(488.4971,323.7149)">
          <path
             d="M 0,0 C 0,0 3.342,3.342 6.684,-0.446"
             style="fill:none;stroke:#000000;stroke-width:1;stroke-linecap:round;stroke-linejoin:miter;stroke-miterlimit:10;stroke-dasharray:none;stroke-opacity:1"
             id="path288" />
        </g>
        <g
           id="g290"
           transform="translate(448.844,301.6537)">
          <path
             d="m 0,0 7.13,3.342 c 0,0 8.69,-9.469 5.57,-17.602 l -8.689,-2.562 c 0,0 4.01,8.912 -4.011,16.822"
             style="fill:#ffffff;fill-opacity:1;fill-rule:nonzero;stroke:none"
             id="path292" />
        </g>
        <g
           id="g294"
           transform="translate(515.743,284.4416)">
          <path
             d="m 0,0 c 0,0 9.358,-4.011 16.042,-15.541 l -7.185,-5.515 c 0,0 -8.857,12.701 -15.04,14.706 z"
             style="fill:#ffffff;fill-opacity:1;fill-rule:nonzero;stroke:none"
             id="path296" />
        </g>
        <g
           id="g298"
           transform="translate(507.8889,394.733)">
          <path
             d="m 0,0 29.522,-2.172 c 0,0 1.12,-16.239 -16.708,-30.56 l -8.006,7.779 -4.362,-9.471 c 0,0 -6.775,3.811 -7.688,14.75 l 1.439,13.281 z"
             style="fill:#ffffff;fill-opacity:1;fill-rule:nonzero;stroke:none"
             id="path300" />
        </g>
        <g
           id="g302"
           transform="translate(522.8942,393.2901)">
          <path
             d="M 0,0 C 1.077,-0.918 1.588,-2.332 1.338,-3.725 0.39,-9.01 -2.476,-21.802 -8.222,-23.41 c -7.266,-2.033 -11.799,12.319 -11.799,12.319 l 3.623,25.067 z"
             style="fill:#db9c7f;fill-opacity:1;fill-rule:nonzero;stroke:none"
             id="path304" />
        </g>
        <g
           id="g306"
           transform="translate(499.8726,387.3461)">
          <path
             d="M 0,0 -0.089,-3.65 C -0.157,-3.688 -1.398,-14.462 2.223,-14.878 17.357,-12.141 18.309,2.207 19.604,16.447 19.604,16.447 -1.469,2.843 0,0"
             style="fill:#000000;fill-opacity:1;fill-rule:nonzero;stroke:none"
             id="path308" />
        </g>
        <g
           id="g310"
           transform="translate(474.6776,414.2227)">
          <path
             d="M 0,0 C 0,0 -3.688,-35.148 18.147,-41.196 39.983,-47.245 45.214,-11.635 44.461,0.68 43.708,12.995 38.219,17.575 22.915,18.127 0.274,18.943 0,0 0,0"
             style="fill:#db9c7f;fill-opacity:1;fill-rule:nonzero;stroke:none"
             id="path312" />
        </g>
        <g
           id="g314"
           transform="translate(494.2952,397.2399)">
          <path
             d="m 0,0 c 0.062,-1.265 -0.539,-2.324 -1.343,-2.365 -0.804,-0.041 -1.506,0.952 -1.568,2.217 -0.063,1.265 0.538,2.324 1.342,2.365 C -0.765,2.258 -0.062,1.265 0,0"
             style="fill:#000000;fill-opacity:1;fill-rule:nonzero;stroke:none"
             id="path316" />
        </g>
        <g
           id="g318"
           transform="translate(496.6934,403.715)">
          <path
             d="M 0,0 C 0,0 -7.214,-3.14 -7.922,2.314"
             style="fill:none;stroke:#000000;stroke-width:1;stroke-linecap:round;stroke-linejoin:miter;stroke-miterlimit:10;stroke-dasharray:none;stroke-opacity:1"
             id="path320" />
        </g>
        <g
           id="g322"
           transform="translate(480.0166,403.701)">
          <path
             d="M 0,0 C 0,0 -2.383,-4.137 -5.123,-2.299"
             style="fill:none;stroke:#000000;stroke-width:1;stroke-linecap:round;stroke-linejoin:miter;stroke-miterlimit:10;stroke-dasharray:none;stroke-opacity:1"
             id="path324" />
        </g>
        <g
           id="g326"
           transform="translate(476.1843,396.3526)">
          <path
             d="M 0,0 C 0,0 1.363,0.44 3.363,-0.616"
             style="fill:none;stroke:#000000;stroke-width:1;stroke-linecap:round;stroke-linejoin:miter;stroke-miterlimit:10;stroke-dasharray:none;stroke-opacity:1"
             id="path328" />
        </g>
        <g
           id="g330"
           transform="translate(497.564,383.242)">
          <path
             d="M 0,0 C 0,0 1.967,1.881 3.591,2.309"
             style="fill:none;stroke:#000000;stroke-width:1;stroke-linecap:round;stroke-linejoin:miter;stroke-miterlimit:10;stroke-dasharray:none;stroke-opacity:1"
             id="path332" />
        </g>
        <g
           id="g334"
           transform="translate(482.8052,392.3032)">
          <path
             d="M 0,0 C 0,0 -1.254,-2.85 1.938,-4.218"
             style="fill:none;stroke:#000000;stroke-width:1;stroke-linecap:round;stroke-linejoin:miter;stroke-miterlimit:10;stroke-dasharray:none;stroke-opacity:1"
             id="path336" />
        </g>
        <g
           id="g338"
           transform="translate(474.4216,406.6664)">
          <path
             d="m 0,0 c 0,0 0.37,10.292 4.93,16.107 0,0 6.27,-14.251 33.29,-17.158 l 7.866,1.653 c 0,0 3.22,16.502 -8.066,23 C 26.734,30.101 9.461,26.509 3.904,20.667 -5.517,10.761 0,0 0,0"
             style="fill:#000000;fill-opacity:1;fill-rule:nonzero;stroke:none"
             id="path340" />
        </g>
        <g
           id="g342"
           transform="translate(507.3969,407.4964)">
          <path
             d="M 0,0 4.674,-9.234 7.98,1.14 Z"
             style="fill:#000000;fill-opacity:1;fill-rule:nonzero;stroke:none"
             id="path344" />
        </g>
        <g
           id="g346"
           transform="translate(523.734,399.2215)">
          <path
             d="m 0,0 c -1.346,-4.912 -5.211,-8.159 -8.631,-7.253 -3.42,0.907 -5.102,5.624 -3.755,10.536 1.346,4.911 5.211,8.159 8.631,7.252 C -0.335,9.629 1.346,4.912 0,0"
             style="fill:#db9c7f;fill-opacity:1;fill-rule:nonzero;stroke:none"
             id="path348" />
        </g>
        <g
           id="g350"
           transform="translate(520.3012,403.4983)">
          <path
             d="m 0,0 c 0,0 -3.847,3.31 -5.949,-2.742 0,0 2.248,-2.385 0.83,-4.257 0,0 2.215,-0.503 3.308,1.451"
             style="fill:none;stroke:#000000;stroke-width:1;stroke-linecap:round;stroke-linejoin:round;stroke-miterlimit:10;stroke-dasharray:none;stroke-opacity:1"
             id="path352" />
        </g>
        <g
           id="g354"
           transform="translate(518.6358,401.1828)">
          <path
             d="M 0,0 C 0,0 -0.214,1.345 -1.708,2.879"
             style="fill:none;stroke:#000000;stroke-width:1;stroke-linecap:round;stroke-linejoin:round;stroke-miterlimit:10;stroke-dasharray:none;stroke-opacity:1"
             id="path356" />
        </g>
        <g
           id="g358"
           transform="translate(520.5074,392.1343)">
          <path
             d="m 0,0 c 0,-1.842 -1.493,-3.335 -3.335,-3.335 -1.841,0 -3.334,1.493 -3.334,3.335 0,1.842 1.493,3.335 3.334,3.335 C -1.493,3.335 0,1.842 0,0"
             style="fill:#ffffff;fill-opacity:1;fill-rule:nonzero;stroke:none"
             id="path360" />
        </g>
        <g
           id="g362"
           transform="translate(511.1591,425.9652)">
          <path
             d="M 0,0 C 0,0 4.104,21.433 13.681,17.329 23.257,13.224 27.589,-7.296 18.469,-8.892 9.348,-10.488 2.28,-6.156 2.28,-6.156 Z"
             style="fill:#000000;fill-opacity:1;fill-rule:nonzero;stroke:none"
             id="path364" />
        </g>
        <g
           id="g366"
           transform="translate(511.2731,419.8089)">
          <path
             d="M 0,0 C 0,0 15.847,-13.224 20.977,-1.026"
             style="fill:none;stroke:#000000;stroke-width:1;stroke-linecap:round;stroke-linejoin:miter;stroke-miterlimit:10;stroke-dasharray:none;stroke-opacity:1"
             id="path368" />
        </g>
        <g
           id="g370"
           transform="translate(571.1598,232.7147)">
          <path
             d="M 0,0 -18.344,10.353"
             style="fill:none;stroke:#424242;stroke-width:1;stroke-linecap:round;stroke-linejoin:miter;stroke-miterlimit:10;stroke-dasharray:none;stroke-opacity:1"
             id="path372" />
        </g>
        <g
           id="g374"
           transform="translate(154.7857,368.6674)">
          <path
             d="m 0,0 c 19.821,-0.54 36.221,-16.416 37.362,-36.212 0.67,-11.64 -3.841,-22.232 -11.432,-29.705 -1.122,-1.104 -1.643,-2.678 -1.381,-4.23 L 27.4,-87.018 9.859,-76.797 c -0.999,0.582 -2.176,0.795 -3.31,0.567 -4.288,-0.865 -8.831,-1.024 -13.514,-0.315 -17.329,2.625 -30.849,16.972 -32.447,34.425 C -41.542,-18.857 -22.962,0.626 0,0"
             style="fill:#d3ddf7;fill-opacity:1;fill-rule:nonzero;stroke:none"
             id="path376" />
        </g>
        <g
           id="g378"
           transform="translate(151.3005,309.9881)">
          <path
             d="M 0,0 C 0,0.472 0.127,0.862 0.381,1.171 0.635,1.479 0.98,1.634 1.416,1.634 1.924,1.634 2.287,1.488 2.506,1.198 2.724,0.907 2.832,0.508 2.832,0 2.832,-0.435 2.714,-0.817 2.479,-1.144 2.241,-1.471 1.888,-1.634 1.416,-1.634 0.943,-1.634 0.59,-1.488 0.354,-1.198 0.117,-0.908 0,-0.509 0,0 m 0.653,6.863 -0.108,9.205 c 1.343,0.327 2.568,0.753 3.676,1.28 1.107,0.526 2.079,1.134 2.914,1.825 0.835,0.689 1.534,1.461 2.097,2.315 0.563,0.852 0.989,1.77 1.281,2.75 0.29,0.981 0.435,2.015 0.435,3.105 0,1.561 -0.382,3.032 -1.144,4.412 -0.762,1.379 -1.852,2.496 -3.268,3.349 -1.416,0.853 -3.104,1.281 -5.065,1.281 -2.107,0 -4.058,-0.582 -5.856,-1.743 -1.798,-1.163 -3.169,-3.142 -4.112,-5.937 l -0.981,0.653 c 0.835,2.65 2.234,4.685 4.195,6.1 1.961,1.417 4.193,2.125 6.699,2.125 2.143,0 4.021,-0.455 5.638,-1.362 1.615,-0.908 2.877,-2.134 3.785,-3.677 0.907,-1.543 1.362,-3.277 1.362,-5.201 0,-1.453 -0.245,-2.815 -0.735,-4.085 C 10.976,21.986 10.285,20.825 9.395,19.772 8.506,18.718 7.426,17.802 6.154,17.022 4.883,16.24 3.449,15.65 1.852,15.251 L 1.743,6.863 Z"
             style="fill:#000000;fill-opacity:1;fill-rule:nonzero;stroke:none"
             id="path380" />
        </g>
      </g>
    </g>
  </g>
</svg>
